{"title":"Teen Wolf Season 4 EP4 The Benefactor 1080P WEB-DL","uid":10580255,"size":1560473061,"categoryP":"video","categoryS":"hd___tv_shows","magnet":"?xt=urn:btih:2c141a1959f5f14e2e8e4dcfb602bfb616555f04&amp;dn=Teen+Wolf+Season+4+EP4+The+Benefactor+1080P+WEB-DL&amp;tr=udp%3A%2F%2Ftracker.openbittorrent.com%3A80&amp;tr=udp%3A%2F%2Fopen.demonii.com%3A1337&amp;tr=udp%3A%2F%2Ftracker.coppersurfer.tk%3A6969&amp;tr=udp%3A%2F%2Fexodus.desync.com%3A6969","seeders":9,"leechers":0,"uploader":"jmanwf","files":3,"time":1405676478,"description":"On the night of the full moon, uninvited guests turn up at Lydia's lake house; Derek pursues a killer\n\n\n\nFormat : MPEG-4\nFormat profile : Base Media\nCodec ID : isom\nFile size : 1.45 GiB\nDuration : 41mn 55s\nOverall bit rate mode : Variable\nOverall bit rate : 4 962 Kbps\nMovie name : The Benefactor\nAlbum : Teen Wolf, Season 4\nPart/Position : 1\nPart/Total : 1\nTrack name/Position : 4\nTrack name/Total : 7\nPerformer : Teen Wolf\nGenre : Sci-Fi &amp; Fantasy\n\nVideo\nID : 2\nFormat : MPEG-4 Visual\nFormat profile : Simple@L3\nFormat settings, BVOP : No\nFormat settings, QPel : No\nFormat settings, GMC : No warppoints\nFormat settings, Matrix : Default (H.263)\nCodec ID : 20\nDuration : 41mn 55s\nBit rate mode : Variable\nBit rate : 4 805 Kbps\nMaximum bit rate : 2 273 Mbps\nWidth : 1 916 pixels\nHeight : 1 076 pixels\nDisplay aspect ratio : 16:9\nFrame rate mode : Variable\nFrame rate : 23.976 fps\nMinimum frame rate : 11.988 fps\nMaximum frame rate : 23.976 fps\nColor space : YUV\nChroma subsampling : 4:2:0\nBit depth : 8 bits\nScan type : Progressive\nCompression mode : Lossy\nBits/(Pixel*Frame) : 0.097\nStream size : 1.41 GiB (97%)\nWriting library : XviD 63\n\nAudio\nID : 1\nFormat : AAC\nFormat/Info : Advanced Audio Codec\nFormat profile : LC\nCodec ID : 40\nDuration : 41mn 55s\nBit rate mode : Variable\nBit rate : 152 Kbps\nMaximum bit rate : 253 Kbps\nChannel(s) : 2 channels\nChannel positions : Front: L R\nSampling rate : 44.1 KHz\nCompression mode : Lossy\nStream size : 45.5 MiB (3%)\nLanguage : English\n","torrent":{"xt":"urn:btih:2c141a1959f5f14e2e8e4dcfb602bfb616555f04","amp;dn":"Teen+Wolf+Season+4+EP4+The+Benefactor+1080P+WEB-DL","amp;tr":["udp%3A%2F%2Ftracker.openbittorrent.com%3A80","udp%3A%2F%2Fopen.demonii.com%3A1337","udp%3A%2F%2Ftracker.coppersurfer.tk%3A6969","udp%3A%2F%2Fexodus.desync.com%3A6969"],"infoHash":"2c141a1959f5f14e2e8e4dcfb602bfb616555f04","infoHashBuffer":{"type":"Buffer","data":[44,20,26,25,89,245,241,78,46,142,77,207,182,2,191,182,22,85,95,4]},"announce":[],"urlList":[]}}